<?xml version="1.0" encoding="UTF-8" standalone="no"?>
<!DOCTYPE svg PUBLIC "-//W3C//DTD SVG 1.1//EN"
 "http://www.w3.org/Graphics/SVG/1.1/DTD/svg11.dtd">
<!-- Generated by graphviz version 2.44.0 (20200408.0750)
 -->
<!-- Title: snakemake_dag Pages: 1 -->
<svg width="1382pt" height="936pt"
 viewBox="0.00 0.00 1382.01 936.00" xmlns="http://www.w3.org/2000/svg" xmlns:xlink="http://www.w3.org/1999/xlink">
<g id="graph0" class="graph" transform="scale(1 1) rotate(0) translate(4 932)">
<title>snakemake_dag</title>
<polygon fill="white" stroke="transparent" points="-4,4 -4,-932 1378.01,-932 1378.01,4 -4,4"/>
<!-- 0 -->
<g id="node1" class="node">
<title>0</title>
<path fill="none" stroke="#56a2d8" stroke-width="2" d="M401.01,-36C401.01,-36 371.01,-36 371.01,-36 365.01,-36 359.01,-30 359.01,-24 359.01,-24 359.01,-12 359.01,-12 359.01,-6 365.01,0 371.01,0 371.01,0 401.01,0 401.01,0 407.01,0 413.01,-6 413.01,-12 413.01,-12 413.01,-24 413.01,-24 413.01,-30 407.01,-36 401.01,-36"/>
<text text-anchor="middle" x="386.01" y="-15" font-family="sans" font-size="10.00">all</text>
</g>
<!-- 1 -->
<g id="node2" class="node">
<title>1</title>
<path fill="none" stroke="#d86656" stroke-width="2" d="M325.67,-256C325.67,-256 282.36,-256 282.36,-256 276.36,-256 270.36,-250 270.36,-244 270.36,-244 270.36,-232 270.36,-232 270.36,-226 276.36,-220 282.36,-220 282.36,-220 325.67,-220 325.67,-220 331.67,-220 337.67,-226 337.67,-232 337.67,-232 337.67,-244 337.67,-244 337.67,-250 331.67,-256 325.67,-256"/>
<text text-anchor="middle" x="304.01" y="-235" font-family="sans" font-size="10.00">share_to_igv</text>
</g>
<!-- 1&#45;&gt;0 -->
<g id="edge1" class="edge">
<title>1&#45;&gt;0</title>
<path fill="none" stroke="grey" stroke-width="2" d="M310.45,-219.89C324.7,-182.01 359.01,-90.8 376.05,-45.48"/>
<polygon fill="grey" stroke="grey" stroke-width="2" points="379.36,-46.62 379.61,-36.03 372.81,-44.15 379.36,-46.62"/>
</g>
<!-- 2 -->
<g id="node3" class="node">
<title>2</title>
<path fill="none" stroke="#56d86b" stroke-width="2" d="M870.67,-108C870.67,-108 827.36,-108 827.36,-108 821.36,-108 815.36,-102 815.36,-96 815.36,-96 815.36,-84 815.36,-84 815.36,-78 821.36,-72 827.36,-72 827.36,-72 870.67,-72 870.67,-72 876.67,-72 882.67,-78 882.67,-84 882.67,-84 882.67,-96 882.67,-96 882.67,-102 876.67,-108 870.67,-108"/>
<text text-anchor="middle" x="849.01" y="-87" font-family="sans" font-size="10.00">tn_workflow</text>
</g>
<!-- 2&#45;&gt;0 -->
<g id="edge2" class="edge">
<title>2&#45;&gt;0</title>
<path fill="none" stroke="grey" stroke-width="2" d="M815.34,-83.91C731.06,-71.17 511.44,-37.96 423.36,-24.65"/>
<polygon fill="grey" stroke="grey" stroke-width="2" points="423.7,-21.16 413.29,-23.12 422.65,-28.08 423.7,-21.16"/>
</g>
<!-- 3 -->
<g id="node4" class="node">
<title>3</title>
<path fill="none" stroke="#56d8b1" stroke-width="2" d="M1106.2,-332C1106.2,-332 1021.83,-332 1021.83,-332 1015.83,-332 1009.83,-326 1009.83,-320 1009.83,-320 1009.83,-308 1009.83,-308 1009.83,-302 1015.83,-296 1021.83,-296 1021.83,-296 1106.2,-296 1106.2,-296 1112.2,-296 1118.2,-302 1118.2,-308 1118.2,-308 1118.2,-320 1118.2,-320 1118.2,-326 1112.2,-332 1106.2,-332"/>
<text text-anchor="middle" x="1064.01" y="-311" font-family="sans" font-size="10.00">filter_canvas_germline</text>
</g>
<!-- 3&#45;&gt;1 -->
<g id="edge3" class="edge">
<title>3&#45;&gt;1</title>
<path fill="none" stroke="grey" stroke-width="2" d="M1009.86,-297.72C1006.88,-297.08 1003.91,-296.51 1001.01,-296 874.37,-273.92 480.31,-249.37 347.91,-241.54"/>
<polygon fill="grey" stroke="grey" stroke-width="2" points="347.93,-238.04 337.74,-240.94 347.52,-245.02 347.93,-238.04"/>
</g>
<!-- 3&#45;&gt;2 -->
<g id="edge22" class="edge">
<title>3&#45;&gt;2</title>
<path fill="none" stroke="grey" stroke-width="2" d="M1093.52,-295.94C1105.99,-286.99 1119.2,-274.79 1126.01,-260 1134.2,-242.24 1136.62,-232.43 1126.01,-216 1074.22,-135.81 957.28,-106.53 893.14,-96.26"/>
<polygon fill="grey" stroke="grey" stroke-width="2" points="893.36,-92.75 882.94,-94.71 892.31,-99.67 893.36,-92.75"/>
</g>
<!-- 21 -->
<g id="node22" class="node">
<title>21</title>
<path fill="none" stroke="#8fd856" stroke-width="2" d="M881.21,-180C881.21,-180 816.81,-180 816.81,-180 810.81,-180 804.81,-174 804.81,-168 804.81,-168 804.81,-156 804.81,-156 804.81,-150 810.81,-144 816.81,-144 816.81,-144 881.21,-144 881.21,-144 887.21,-144 893.21,-150 893.21,-156 893.21,-156 893.21,-168 893.21,-168 893.21,-174 887.21,-180 881.21,-180"/>
<text text-anchor="middle" x="849.01" y="-159" font-family="sans" font-size="10.00">share_to_resultdir</text>
</g>
<!-- 3&#45;&gt;21 -->
<g id="edge62" class="edge">
<title>3&#45;&gt;21</title>
<path fill="none" stroke="grey" stroke-width="2" d="M1039.35,-295.79C1000.47,-268.67 924.91,-215.95 881.6,-185.73"/>
<polygon fill="grey" stroke="grey" stroke-width="2" points="883.59,-182.86 873.39,-180.01 879.59,-188.6 883.59,-182.86"/>
</g>
<!-- 4 -->
<g id="node5" class="node">
<title>4</title>
<path fill="none" stroke="#56b1d8" stroke-width="2" d="M979.76,-332C979.76,-332 900.27,-332 900.27,-332 894.27,-332 888.27,-326 888.27,-320 888.27,-320 888.27,-308 888.27,-308 888.27,-302 894.27,-296 900.27,-296 900.27,-296 979.76,-296 979.76,-296 985.76,-296 991.76,-302 991.76,-308 991.76,-308 991.76,-320 991.76,-320 991.76,-326 985.76,-332 979.76,-332"/>
<text text-anchor="middle" x="940.01" y="-311" font-family="sans" font-size="10.00">filter_canvas_somatic</text>
</g>
<!-- 4&#45;&gt;1 -->
<g id="edge4" class="edge">
<title>4&#45;&gt;1</title>
<path fill="none" stroke="grey" stroke-width="2" d="M888.24,-306.98C766.16,-292.77 462.07,-257.39 348.09,-244.13"/>
<polygon fill="grey" stroke="grey" stroke-width="2" points="348.32,-240.63 337.98,-242.95 347.51,-247.58 348.32,-240.63"/>
</g>
<!-- 4&#45;&gt;2 -->
<g id="edge23" class="edge">
<title>4&#45;&gt;2</title>
<path fill="none" stroke="grey" stroke-width="2" d="M939.28,-295.83C937.27,-263.99 929.79,-194.45 902.01,-144 896.14,-133.33 887.48,-123.38 878.85,-115.05"/>
<polygon fill="grey" stroke="grey" stroke-width="2" points="881.08,-112.35 871.35,-108.16 876.35,-117.5 881.08,-112.35"/>
</g>
<!-- 4&#45;&gt;21 -->
<g id="edge61" class="edge">
<title>4&#45;&gt;21</title>
<path fill="none" stroke="grey" stroke-width="2" d="M932.25,-295.66C923.11,-275.83 907.01,-242.69 890.01,-216 883.95,-206.48 876.6,-196.57 869.8,-187.92"/>
<polygon fill="grey" stroke="grey" stroke-width="2" points="872.5,-185.7 863.51,-180.08 867.03,-190.07 872.5,-185.7"/>
</g>
<!-- 31 -->
<g id="node32" class="node">
<title>31</title>
<path fill="none" stroke="#78d856" stroke-width="2" d="M868.99,-256C868.99,-256 779.03,-256 779.03,-256 773.03,-256 767.03,-250 767.03,-244 767.03,-244 767.03,-232 767.03,-232 767.03,-226 773.03,-220 779.03,-220 779.03,-220 868.99,-220 868.99,-220 874.99,-220 880.99,-226 880.99,-232 880.99,-232 880.99,-244 880.99,-244 880.99,-250 874.99,-256 868.99,-256"/>
<text text-anchor="middle" x="824.01" y="-241" font-family="sans" font-size="10.00">excel_qc</text>
<text text-anchor="middle" x="824.01" y="-229" font-family="sans" font-size="10.00">tumorname: DNA66244</text>
</g>
<!-- 4&#45;&gt;31 -->
<g id="edge79" class="edge">
<title>4&#45;&gt;31</title>
<path fill="none" stroke="grey" stroke-width="2" d="M913.11,-295.84C897.15,-285.66 876.73,-272.63 859.47,-261.62"/>
<polygon fill="grey" stroke="grey" stroke-width="2" points="861.08,-258.5 850.77,-256.07 857.32,-264.4 861.08,-258.5"/>
</g>
<!-- 5 -->
<g id="node6" class="node">
<title>5</title>
<path fill="none" stroke="#d8b456" stroke-width="2" d="M958.82,-404C958.82,-404 903.2,-404 903.2,-404 897.2,-404 891.2,-398 891.2,-392 891.2,-392 891.2,-380 891.2,-380 891.2,-374 897.2,-368 903.2,-368 903.2,-368 958.82,-368 958.82,-368 964.82,-368 970.82,-374 970.82,-380 970.82,-380 970.82,-392 970.82,-392 970.82,-398 964.82,-404 958.82,-404"/>
<text text-anchor="middle" x="931.01" y="-383" font-family="sans" font-size="10.00">canvas_somatic</text>
</g>
<!-- 5&#45;&gt;1 -->
<g id="edge5" class="edge">
<title>5&#45;&gt;1</title>
<path fill="none" stroke="grey" stroke-width="2" d="M891.15,-380.44C828.91,-372.91 705.07,-356.25 602.01,-332 510,-310.35 405.04,-275.03 347.49,-254.72"/>
<polygon fill="grey" stroke="grey" stroke-width="2" points="348.58,-251.39 337.99,-251.35 346.24,-257.99 348.58,-251.39"/>
</g>
<!-- 5&#45;&gt;2 -->
<g id="edge24" class="edge">
<title>5&#45;&gt;2</title>
<path fill="none" stroke="grey" stroke-width="2" d="M970.97,-373.35C977.33,-371.53 983.85,-369.7 990.01,-368 1050.71,-351.28 1083.36,-377.36 1127.01,-332 1163.1,-294.5 1160.93,-264.86 1143.01,-216 1107.16,-118.22 965.74,-96.63 892.9,-92.07"/>
<polygon fill="grey" stroke="grey" stroke-width="2" points="892.84,-88.56 882.67,-91.51 892.46,-95.55 892.84,-88.56"/>
</g>
<!-- 5&#45;&gt;4 -->
<g id="edge30" class="edge">
<title>5&#45;&gt;4</title>
<path fill="none" stroke="grey" stroke-width="2" d="M933.24,-367.7C934.23,-359.98 935.42,-350.71 936.53,-342.11"/>
<polygon fill="grey" stroke="grey" stroke-width="2" points="940.01,-342.47 937.81,-332.1 933.07,-341.58 940.01,-342.47"/>
</g>
<!-- 6 -->
<g id="node7" class="node">
<title>6</title>
<path fill="none" stroke="#d88d56" stroke-width="2" d="M1103.76,-404C1103.76,-404 1044.26,-404 1044.26,-404 1038.26,-404 1032.26,-398 1032.26,-392 1032.26,-392 1032.26,-380 1032.26,-380 1032.26,-374 1038.26,-368 1044.26,-368 1044.26,-368 1103.76,-368 1103.76,-368 1109.76,-368 1115.76,-374 1115.76,-380 1115.76,-380 1115.76,-392 1115.76,-392 1115.76,-398 1109.76,-404 1103.76,-404"/>
<text text-anchor="middle" x="1074.01" y="-383" font-family="sans" font-size="10.00">canvas_germline</text>
</g>
<!-- 6&#45;&gt;1 -->
<g id="edge6" class="edge">
<title>6&#45;&gt;1</title>
<path fill="none" stroke="grey" stroke-width="2" d="M1032.01,-376.71C1015.8,-373.69 997.09,-370.43 980.01,-368 827.39,-346.27 783.95,-371.8 635.01,-332 596.95,-321.83 591.39,-308.44 554.01,-296 483.28,-272.46 398.11,-255.33 347.65,-246.29"/>
<polygon fill="grey" stroke="grey" stroke-width="2" points="348.19,-242.83 337.74,-244.54 346.98,-249.73 348.19,-242.83"/>
</g>
<!-- 6&#45;&gt;2 -->
<g id="edge25" class="edge">
<title>6&#45;&gt;2</title>
<path fill="none" stroke="grey" stroke-width="2" d="M1116.09,-384.2C1154.34,-380.95 1208.83,-369.49 1236.01,-332 1285.06,-264.35 1290.94,-206.96 1236.01,-144 1191.91,-93.44 984.77,-89.38 892.98,-90.14"/>
<polygon fill="grey" stroke="grey" stroke-width="2" points="892.86,-86.64 882.9,-90.24 892.94,-93.64 892.86,-86.64"/>
</g>
<!-- 6&#45;&gt;3 -->
<g id="edge29" class="edge">
<title>6&#45;&gt;3</title>
<path fill="none" stroke="grey" stroke-width="2" d="M1071.54,-367.7C1070.44,-359.98 1069.11,-350.71 1067.89,-342.11"/>
<polygon fill="grey" stroke="grey" stroke-width="2" points="1071.34,-341.51 1066.46,-332.1 1064.41,-342.5 1071.34,-341.51"/>
</g>
<!-- 7 -->
<g id="node8" class="node">
<title>7</title>
<path fill="none" stroke="#b6d856" stroke-width="2" d="M441.77,-764C441.77,-764 382.25,-764 382.25,-764 376.25,-764 370.25,-758 370.25,-752 370.25,-752 370.25,-740 370.25,-740 370.25,-734 376.25,-728 382.25,-728 382.25,-728 441.77,-728 441.77,-728 447.77,-728 453.77,-734 453.77,-740 453.77,-740 453.77,-752 453.77,-752 453.77,-758 447.77,-764 441.77,-764"/>
<text text-anchor="middle" x="412.01" y="-743" font-family="sans" font-size="10.00">realign_mapping</text>
</g>
<!-- 7&#45;&gt;1 -->
<g id="edge7" class="edge">
<title>7&#45;&gt;1</title>
<path fill="none" stroke="grey" stroke-width="2" d="M370.03,-739.61C334.29,-733.26 283.13,-719.8 247.01,-692 209.79,-663.35 190.01,-649.97 190.01,-603 190.01,-603 190.01,-603 190.01,-385 190.01,-332.67 236.07,-287.88 269.63,-262.19"/>
<polygon fill="grey" stroke="grey" stroke-width="2" points="271.92,-264.85 277.86,-256.07 267.74,-259.23 271.92,-264.85"/>
</g>
<!-- 7&#45;&gt;5 -->
<g id="edge33" class="edge">
<title>7&#45;&gt;5</title>
<path fill="none" stroke="grey" stroke-width="2" d="M453.79,-744.33C504.29,-741.69 590.06,-731.2 651.01,-692 768.99,-616.13 736.35,-533.38 841.01,-440 854.23,-428.2 870.48,-417.69 885.51,-409.2"/>
<polygon fill="grey" stroke="grey" stroke-width="2" points="887.58,-412.05 894.67,-404.18 884.22,-405.91 887.58,-412.05"/>
</g>
<!-- 9 -->
<g id="node10" class="node">
<title>9</title>
<path fill="none" stroke="#9fd856" stroke-width="2" d="M149.98,-332C149.98,-332 108.04,-332 108.04,-332 102.04,-332 96.04,-326 96.04,-320 96.04,-320 96.04,-308 96.04,-308 96.04,-302 102.04,-296 108.04,-296 108.04,-296 149.98,-296 149.98,-296 155.98,-296 161.98,-302 161.98,-308 161.98,-308 161.98,-320 161.98,-320 161.98,-326 155.98,-332 149.98,-332"/>
<text text-anchor="middle" x="129.01" y="-311" font-family="sans" font-size="10.00">generate_tdf</text>
</g>
<!-- 7&#45;&gt;9 -->
<g id="edge42" class="edge">
<title>7&#45;&gt;9</title>
<path fill="none" stroke="grey" stroke-width="2" d="M370.18,-740.79C310.06,-733.9 203.45,-718.3 176.01,-692 146.43,-663.65 152.01,-643.97 152.01,-603 152.01,-603 152.01,-603 152.01,-457 152.01,-416.7 142.87,-370.78 136.12,-342.34"/>
<polygon fill="grey" stroke="grey" stroke-width="2" points="139.45,-341.22 133.67,-332.34 132.65,-342.89 139.45,-341.22"/>
</g>
<!-- 12 -->
<g id="node13" class="node">
<title>12</title>
<path fill="none" stroke="#d6d856" stroke-width="2" d="M384.05,-620C384.05,-620 331.97,-620 331.97,-620 325.97,-620 319.97,-614 319.97,-608 319.97,-608 319.97,-596 319.97,-596 319.97,-590 325.97,-584 331.97,-584 331.97,-584 384.05,-584 384.05,-584 390.05,-584 396.05,-590 396.05,-596 396.05,-596 396.05,-608 396.05,-608 396.05,-614 390.05,-620 384.05,-620"/>
<text text-anchor="middle" x="358.01" y="-599" font-family="sans" font-size="10.00">manta_somatic</text>
</g>
<!-- 7&#45;&gt;12 -->
<g id="edge45" class="edge">
<title>7&#45;&gt;12</title>
<path fill="none" stroke="grey" stroke-width="2" d="M369.93,-743.43C333.4,-739.57 282.48,-727.63 257.01,-692 247.71,-678.98 248.73,-669.69 257.01,-656 268.78,-636.54 290.3,-623.88 310.47,-615.83"/>
<polygon fill="grey" stroke="grey" stroke-width="2" points="311.74,-619.09 319.91,-612.34 309.31,-612.52 311.74,-619.09"/>
</g>
<!-- 14 -->
<g id="node15" class="node">
<title>14</title>
<path fill="none" stroke="#68d856" stroke-width="2" d="M588.01,-620C588.01,-620 558.01,-620 558.01,-620 552.01,-620 546.01,-614 546.01,-608 546.01,-608 546.01,-596 546.01,-596 546.01,-590 552.01,-584 558.01,-584 558.01,-584 588.01,-584 588.01,-584 594.01,-584 600.01,-590 600.01,-596 600.01,-596 600.01,-608 600.01,-608 600.01,-614 594.01,-620 588.01,-620"/>
<text text-anchor="middle" x="573.01" y="-599" font-family="sans" font-size="10.00">tnscope</text>
</g>
<!-- 7&#45;&gt;14 -->
<g id="edge48" class="edge">
<title>7&#45;&gt;14</title>
<path fill="none" stroke="grey" stroke-width="2" d="M419.66,-727.67C428.97,-708.18 446.31,-676.58 469.01,-656 488.55,-638.3 515.08,-624.9 536.46,-616.01"/>
<polygon fill="grey" stroke="grey" stroke-width="2" points="537.89,-619.2 545.87,-612.24 535.29,-612.7 537.89,-619.2"/>
</g>
<!-- 18 -->
<g id="node19" class="node">
<title>18</title>
<path fill="none" stroke="#56c9d8" stroke-width="2" d="M705.71,-332C705.71,-332 656.32,-332 656.32,-332 650.32,-332 644.32,-326 644.32,-320 644.32,-320 644.32,-308 644.32,-308 644.32,-302 650.32,-296 656.32,-296 656.32,-296 705.71,-296 705.71,-296 711.71,-296 717.71,-302 717.71,-308 717.71,-308 717.71,-320 717.71,-320 717.71,-326 711.71,-332 705.71,-332"/>
<text text-anchor="middle" x="681.01" y="-311" font-family="sans" font-size="10.00">wgs_coverage</text>
</g>
<!-- 7&#45;&gt;18 -->
<g id="edge55" class="edge">
<title>7&#45;&gt;18</title>
<path fill="none" stroke="grey" stroke-width="2" d="M415.13,-727.88C418.74,-709.66 425.45,-680.19 435.01,-656 475.23,-554.27 486.93,-527.18 553.01,-440 582.73,-400.8 624.66,-362.26 652.33,-338.57"/>
<polygon fill="grey" stroke="grey" stroke-width="2" points="654.71,-341.14 660.08,-332 650.19,-335.8 654.71,-341.14"/>
</g>
<!-- 24 -->
<g id="node25" class="node">
<title>24</title>
<path fill="none" stroke="#d85656" stroke-width="2" d="M520.01,-692C520.01,-692 490.01,-692 490.01,-692 484.01,-692 478.01,-686 478.01,-680 478.01,-680 478.01,-668 478.01,-668 478.01,-662 484.01,-656 490.01,-656 490.01,-656 520.01,-656 520.01,-656 526.01,-656 532.01,-662 532.01,-668 532.01,-668 532.01,-680 532.01,-680 532.01,-686 526.01,-692 520.01,-692"/>
<text text-anchor="middle" x="505.01" y="-671" font-family="sans" font-size="10.00">baserecal</text>
</g>
<!-- 7&#45;&gt;24 -->
<g id="edge66" class="edge">
<title>7&#45;&gt;24</title>
<path fill="none" stroke="grey" stroke-width="2" d="M435,-727.7C446.83,-718.8 461.4,-707.82 474.19,-698.2"/>
<polygon fill="grey" stroke="grey" stroke-width="2" points="476.4,-700.91 482.29,-692.1 472.19,-695.32 476.4,-700.91"/>
</g>
<!-- 8 -->
<g id="node9" class="node">
<title>8</title>
<path fill="none" stroke="#b6d856" stroke-width="2" d="M737.77,-764C737.77,-764 678.25,-764 678.25,-764 672.25,-764 666.25,-758 666.25,-752 666.25,-752 666.25,-740 666.25,-740 666.25,-734 672.25,-728 678.25,-728 678.25,-728 737.77,-728 737.77,-728 743.77,-728 749.77,-734 749.77,-740 749.77,-740 749.77,-752 749.77,-752 749.77,-758 743.77,-764 737.77,-764"/>
<text text-anchor="middle" x="708.01" y="-743" font-family="sans" font-size="10.00">realign_mapping</text>
</g>
<!-- 8&#45;&gt;1 -->
<g id="edge8" class="edge">
<title>8&#45;&gt;1</title>
<path fill="none" stroke="grey" stroke-width="2" d="M666.14,-734.52C639.18,-726.25 604.54,-712.61 579.01,-692 503.72,-631.22 375.68,-419.34 334.01,-332 323.84,-310.68 315.86,-285.05 310.7,-266.09"/>
<polygon fill="grey" stroke="grey" stroke-width="2" points="314.05,-265.1 308.12,-256.32 307.28,-266.88 314.05,-265.1"/>
</g>
<!-- 8&#45;&gt;6 -->
<g id="edge37" class="edge">
<title>8&#45;&gt;6</title>
<path fill="none" stroke="grey" stroke-width="2" d="M735.71,-727.98C750.47,-718.3 768.52,-705.45 783.01,-692 889.47,-593.23 882.27,-536.25 991.01,-440 1003.84,-428.65 1019.34,-418.06 1033.46,-409.38"/>
<polygon fill="grey" stroke="grey" stroke-width="2" points="1035.26,-412.38 1042.04,-404.23 1031.66,-406.38 1035.26,-412.38"/>
</g>
<!-- 10 -->
<g id="node11" class="node">
<title>10</title>
<path fill="none" stroke="#9fd856" stroke-width="2" d="M423.98,-332C423.98,-332 382.04,-332 382.04,-332 376.04,-332 370.04,-326 370.04,-320 370.04,-320 370.04,-308 370.04,-308 370.04,-302 376.04,-296 382.04,-296 382.04,-296 423.98,-296 423.98,-296 429.98,-296 435.98,-302 435.98,-308 435.98,-308 435.98,-320 435.98,-320 435.98,-326 429.98,-332 423.98,-332"/>
<text text-anchor="middle" x="403.01" y="-311" font-family="sans" font-size="10.00">generate_tdf</text>
</g>
<!-- 8&#45;&gt;10 -->
<g id="edge43" class="edge">
<title>8&#45;&gt;10</title>
<path fill="none" stroke="grey" stroke-width="2" d="M707.42,-727.72C705.09,-685.55 693.51,-576.17 636.01,-512 609.18,-482.05 585.85,-499.2 553.01,-476 497.78,-436.99 447.22,-374.96 421.27,-340.39"/>
<polygon fill="grey" stroke="grey" stroke-width="2" points="423.98,-338.17 415.22,-332.22 418.36,-342.34 423.98,-338.17"/>
</g>
<!-- 8&#45;&gt;12 -->
<g id="edge46" class="edge">
<title>8&#45;&gt;12</title>
<path fill="none" stroke="grey" stroke-width="2" d="M665.97,-741.51C616.7,-736.12 533.59,-722.96 469.01,-692 435.29,-675.83 402.63,-647.66 381.57,-627.33"/>
<polygon fill="grey" stroke="grey" stroke-width="2" points="383.94,-624.76 374.36,-620.24 379.03,-629.75 383.94,-624.76"/>
</g>
<!-- 13 -->
<g id="node14" class="node">
<title>13</title>
<path fill="none" stroke="#56d8c9" stroke-width="2" d="M334.49,-692C334.49,-692 277.53,-692 277.53,-692 271.53,-692 265.53,-686 265.53,-680 265.53,-680 265.53,-668 265.53,-668 265.53,-662 271.53,-656 277.53,-656 277.53,-656 334.49,-656 334.49,-656 340.49,-656 346.49,-662 346.49,-668 346.49,-668 346.49,-680 346.49,-680 346.49,-686 340.49,-692 334.49,-692"/>
<text text-anchor="middle" x="306.01" y="-671" font-family="sans" font-size="10.00">manta_germline</text>
</g>
<!-- 8&#45;&gt;13 -->
<g id="edge47" class="edge">
<title>8&#45;&gt;13</title>
<path fill="none" stroke="grey" stroke-width="2" d="M666.1,-740.73C600.33,-733.55 469.1,-717.32 360.01,-692 358.77,-691.71 357.52,-691.41 356.26,-691.1"/>
<polygon fill="grey" stroke="grey" stroke-width="2" points="357.08,-687.69 346.52,-688.49 355.27,-694.45 357.08,-687.69"/>
</g>
<!-- 8&#45;&gt;14 -->
<g id="edge49" class="edge">
<title>8&#45;&gt;14</title>
<path fill="none" stroke="grey" stroke-width="2" d="M699.71,-727.83C689.92,-708.77 672.26,-677.83 651.01,-656 638.72,-643.37 622.97,-631.99 608.85,-623.04"/>
<polygon fill="grey" stroke="grey" stroke-width="2" points="610.66,-620.05 600.31,-617.79 607,-626.01 610.66,-620.05"/>
</g>
<!-- 19 -->
<g id="node20" class="node">
<title>19</title>
<path fill="none" stroke="#56c9d8" stroke-width="2" d="M911.71,-476C911.71,-476 862.32,-476 862.32,-476 856.32,-476 850.32,-470 850.32,-464 850.32,-464 850.32,-452 850.32,-452 850.32,-446 856.32,-440 862.32,-440 862.32,-440 911.71,-440 911.71,-440 917.71,-440 923.71,-446 923.71,-452 923.71,-452 923.71,-464 923.71,-464 923.71,-470 917.71,-476 911.71,-476"/>
<text text-anchor="middle" x="887.01" y="-455" font-family="sans" font-size="10.00">wgs_coverage</text>
</g>
<!-- 8&#45;&gt;19 -->
<g id="edge56" class="edge">
<title>8&#45;&gt;19</title>
<path fill="none" stroke="grey" stroke-width="2" d="M728.06,-727.8C738.55,-718.07 751.03,-705.22 760.01,-692 789.54,-648.56 783.25,-630.32 808.01,-584 826.98,-548.51 852.34,-509.62 869.15,-484.79"/>
<polygon fill="grey" stroke="grey" stroke-width="2" points="872.19,-486.55 874.93,-476.32 866.41,-482.61 872.19,-486.55"/>
</g>
<!-- 20 -->
<g id="node21" class="node">
<title>20</title>
<path fill="none" stroke="#567bd8" stroke-width="2" d="M1050.1,-476C1050.1,-476 1011.93,-476 1011.93,-476 1005.93,-476 999.93,-470 999.93,-464 999.93,-464 999.93,-452 999.93,-452 999.93,-446 1005.93,-440 1011.93,-440 1011.93,-440 1050.1,-440 1050.1,-440 1056.1,-440 1062.1,-446 1062.1,-452 1062.1,-452 1062.1,-464 1062.1,-464 1062.1,-470 1056.1,-476 1050.1,-476"/>
<text text-anchor="middle" x="1031.01" y="-455" font-family="sans" font-size="10.00">y_coverage</text>
</g>
<!-- 8&#45;&gt;20 -->
<g id="edge57" class="edge">
<title>8&#45;&gt;20</title>
<path fill="none" stroke="grey" stroke-width="2" d="M749.81,-733.36C776.18,-724.7 810.03,-711.07 836.01,-692 917.33,-632.3 985.98,-531.76 1015.51,-484.72"/>
<polygon fill="grey" stroke="grey" stroke-width="2" points="1018.58,-486.4 1020.88,-476.05 1012.64,-482.71 1018.58,-486.4"/>
</g>
<!-- 25 -->
<g id="node26" class="node">
<title>25</title>
<path fill="none" stroke="#d85656" stroke-width="2" d="M630.01,-692C630.01,-692 600.01,-692 600.01,-692 594.01,-692 588.01,-686 588.01,-680 588.01,-680 588.01,-668 588.01,-668 588.01,-662 594.01,-656 600.01,-656 600.01,-656 630.01,-656 630.01,-656 636.01,-656 642.01,-662 642.01,-668 642.01,-668 642.01,-680 642.01,-680 642.01,-686 636.01,-692 630.01,-692"/>
<text text-anchor="middle" x="615.01" y="-671" font-family="sans" font-size="10.00">baserecal</text>
</g>
<!-- 8&#45;&gt;25 -->
<g id="edge67" class="edge">
<title>8&#45;&gt;25</title>
<path fill="none" stroke="grey" stroke-width="2" d="M685.02,-727.7C673.2,-718.8 658.62,-707.82 645.83,-698.2"/>
<polygon fill="grey" stroke="grey" stroke-width="2" points="647.83,-695.32 637.74,-692.1 643.62,-700.91 647.83,-695.32"/>
</g>
<!-- 9&#45;&gt;1 -->
<g id="edge9" class="edge">
<title>9&#45;&gt;1</title>
<path fill="none" stroke="grey" stroke-width="2" d="M162.34,-298.91C190.26,-287.1 230.31,-270.17 260.71,-257.31"/>
<polygon fill="grey" stroke="grey" stroke-width="2" points="262.37,-260.41 270.21,-253.29 259.64,-253.96 262.37,-260.41"/>
</g>
<!-- 9&#45;&gt;2 -->
<g id="edge26" class="edge">
<title>9&#45;&gt;2</title>
<path fill="none" stroke="grey" stroke-width="2" d="M148.31,-295.83C172.96,-274.63 217.64,-238.61 261.01,-216 446.92,-119.08 703.15,-97.3 804.84,-92.41"/>
<polygon fill="grey" stroke="grey" stroke-width="2" points="805.22,-95.9 815.05,-91.95 804.9,-88.9 805.22,-95.9"/>
</g>
<!-- 10&#45;&gt;1 -->
<g id="edge10" class="edge">
<title>10&#45;&gt;1</title>
<path fill="none" stroke="grey" stroke-width="2" d="M380.05,-295.84C366.68,-285.84 349.64,-273.11 335.09,-262.23"/>
<polygon fill="grey" stroke="grey" stroke-width="2" points="336.95,-259.25 326.85,-256.07 332.76,-264.86 336.95,-259.25"/>
</g>
<!-- 10&#45;&gt;2 -->
<g id="edge27" class="edge">
<title>10&#45;&gt;2</title>
<path fill="none" stroke="grey" stroke-width="2" d="M409.14,-295.85C416.83,-275.62 431.33,-241.52 450.01,-216 477.49,-178.45 484.33,-164.68 526.01,-144 617.63,-98.55 740.08,-90.81 804.72,-90.22"/>
<polygon fill="grey" stroke="grey" stroke-width="2" points="804.98,-93.72 814.96,-90.18 804.95,-86.72 804.98,-93.72"/>
</g>
<!-- 11 -->
<g id="node12" class="node">
<title>11</title>
<path fill="none" stroke="#56d8a2" stroke-width="2" d="M65.72,-332C65.72,-332 26.3,-332 26.3,-332 20.3,-332 14.3,-326 14.3,-320 14.3,-320 14.3,-308 14.3,-308 14.3,-302 20.3,-296 26.3,-296 26.3,-296 65.72,-296 65.72,-296 71.72,-296 77.72,-302 77.72,-308 77.72,-308 77.72,-320 77.72,-320 77.72,-326 71.72,-332 65.72,-332"/>
<text text-anchor="middle" x="46.01" y="-311" font-family="sans" font-size="10.00">ballele_plot</text>
</g>
<!-- 11&#45;&gt;1 -->
<g id="edge11" class="edge">
<title>11&#45;&gt;1</title>
<path fill="none" stroke="grey" stroke-width="2" d="M77.63,-299.39C80.78,-298.19 83.95,-297.03 87.01,-296 146.09,-276.1 216.1,-258.8 260.3,-248.63"/>
<polygon fill="grey" stroke="grey" stroke-width="2" points="261.17,-252.03 270.14,-246.39 259.61,-245.2 261.17,-252.03"/>
</g>
<!-- 11&#45;&gt;2 -->
<g id="edge18" class="edge">
<title>11&#45;&gt;2</title>
<path fill="none" stroke="grey" stroke-width="2" d="M69.26,-295.74C97.17,-275.4 145.74,-241.2 190.01,-216 254.97,-179.01 270.03,-164.17 342.01,-144 508.41,-97.36 715.94,-91.04 805.04,-90.66"/>
<polygon fill="grey" stroke="grey" stroke-width="2" points="805.07,-94.16 815.06,-90.64 805.05,-87.16 805.07,-94.16"/>
</g>
<!-- 12&#45;&gt;1 -->
<g id="edge12" class="edge">
<title>12&#45;&gt;1</title>
<path fill="none" stroke="grey" stroke-width="2" d="M337.14,-583.63C309.99,-558.97 266.01,-510.99 266.01,-459 266.01,-459 266.01,-459 266.01,-385 266.01,-342.12 281.55,-294.38 292.76,-265.53"/>
<polygon fill="grey" stroke="grey" stroke-width="2" points="296.04,-266.74 296.5,-256.15 289.54,-264.14 296.04,-266.74"/>
</g>
<!-- 12&#45;&gt;21 -->
<g id="edge63" class="edge">
<title>12&#45;&gt;21</title>
<path fill="none" stroke="grey" stroke-width="2" d="M365.08,-583.89C391.11,-523.17 487.82,-316.22 636.01,-216 683.55,-183.85 748.88,-171.18 794.61,-166.2"/>
<polygon fill="grey" stroke="grey" stroke-width="2" points="795.03,-169.68 804.63,-165.2 794.33,-162.71 795.03,-169.68"/>
</g>
<!-- 13&#45;&gt;1 -->
<g id="edge13" class="edge">
<title>13&#45;&gt;1</title>
<path fill="none" stroke="grey" stroke-width="2" d="M289.09,-655.85C266.15,-630.71 228.01,-581.35 228.01,-531 228.01,-531 228.01,-531 228.01,-385 228.01,-338.39 258.87,-291.9 281.26,-264.3"/>
<polygon fill="grey" stroke="grey" stroke-width="2" points="284.17,-266.28 287.89,-256.36 278.8,-261.79 284.17,-266.28"/>
</g>
<!-- 14&#45;&gt;1 -->
<g id="edge14" class="edge">
<title>14&#45;&gt;1</title>
<path fill="none" stroke="grey" stroke-width="2" d="M555.44,-583.85C545.33,-573.72 532.58,-560.47 522.01,-548 444.57,-456.68 428.14,-431.14 361.01,-332 345.96,-309.77 330.09,-283.63 318.93,-264.74"/>
<polygon fill="grey" stroke="grey" stroke-width="2" points="321.94,-262.94 313.86,-256.09 315.9,-266.49 321.94,-262.94"/>
</g>
<!-- 26 -->
<g id="node27" class="node">
<title>26</title>
<path fill="none" stroke="#56d87b" stroke-width="2" d="M614.99,-548C614.99,-548 543.04,-548 543.04,-548 537.04,-548 531.04,-542 531.04,-536 531.04,-536 531.04,-524 531.04,-524 531.04,-518 537.04,-512 543.04,-512 543.04,-512 614.99,-512 614.99,-512 620.99,-512 626.99,-518 626.99,-524 626.99,-524 626.99,-536 626.99,-536 626.99,-542 620.99,-548 614.99,-548"/>
<text text-anchor="middle" x="579.01" y="-527" font-family="sans" font-size="10.00">tnscope_modelfilter</text>
</g>
<!-- 14&#45;&gt;26 -->
<g id="edge68" class="edge">
<title>14&#45;&gt;26</title>
<path fill="none" stroke="grey" stroke-width="2" d="M574.5,-583.7C575.16,-575.98 575.95,-566.71 576.69,-558.11"/>
<polygon fill="grey" stroke="grey" stroke-width="2" points="580.18,-558.37 577.55,-548.1 573.21,-557.77 580.18,-558.37"/>
</g>
<!-- 15 -->
<g id="node16" class="node">
<title>15</title>
<path fill="none" stroke="#566bd8" stroke-width="2" d="M633.76,-476C633.76,-476 574.26,-476 574.26,-476 568.26,-476 562.26,-470 562.26,-464 562.26,-464 562.26,-452 562.26,-452 562.26,-446 568.26,-440 574.26,-440 574.26,-440 633.76,-440 633.76,-440 639.76,-440 645.76,-446 645.76,-452 645.76,-452 645.76,-464 645.76,-464 645.76,-470 639.76,-476 633.76,-476"/>
<text text-anchor="middle" x="604.01" y="-455" font-family="sans" font-size="10.00">tnscope_vcffilter</text>
</g>
<!-- 15&#45;&gt;2 -->
<g id="edge15" class="edge">
<title>15&#45;&gt;2</title>
<path fill="none" stroke="grey" stroke-width="2" d="M590.44,-439.76C571.65,-414.1 540.01,-363.67 540.01,-315 540.01,-315 540.01,-315 540.01,-237 540.01,-121.09 719.95,-97.06 805.2,-92.18"/>
<polygon fill="grey" stroke="grey" stroke-width="2" points="805.55,-95.67 815.36,-91.67 805.19,-88.68 805.55,-95.67"/>
</g>
<!-- 15&#45;&gt;5 -->
<g id="edge32" class="edge">
<title>15&#45;&gt;5</title>
<path fill="none" stroke="grey" stroke-width="2" d="M646.09,-447.99C706.35,-435.09 817.01,-411.41 881.24,-397.65"/>
<polygon fill="grey" stroke="grey" stroke-width="2" points="882.1,-401.05 891.14,-395.54 880.63,-394.21 882.1,-401.05"/>
</g>
<!-- 29 -->
<g id="node30" class="node">
<title>29</title>
<path fill="none" stroke="#59d856" stroke-width="2" d="M737.32,-260C737.32,-260 656.71,-260 656.71,-260 650.71,-260 644.71,-254 644.71,-248 644.71,-248 644.71,-228 644.71,-228 644.71,-222 650.71,-216 656.71,-216 656.71,-216 737.32,-216 737.32,-216 743.32,-216 749.32,-222 749.32,-228 749.32,-228 749.32,-248 749.32,-248 749.32,-254 743.32,-260 737.32,-260"/>
<text text-anchor="middle" x="697.01" y="-247" font-family="sans" font-size="10.00">filter_variants_in_bed</text>
<text text-anchor="middle" x="697.01" y="-235" font-family="sans" font-size="10.00">caller: tnscope</text>
<text text-anchor="middle" x="697.01" y="-223" font-family="sans" font-size="10.00">vcftype: somatic</text>
</g>
<!-- 15&#45;&gt;29 -->
<g id="edge71" class="edge">
<title>15&#45;&gt;29</title>
<path fill="none" stroke="grey" stroke-width="2" d="M630.48,-439.81C660.44,-418.61 707.57,-379.47 727.01,-332 735.48,-311.32 727.29,-287.29 717.34,-268.84"/>
<polygon fill="grey" stroke="grey" stroke-width="2" points="720.26,-266.91 712.22,-260.01 714.21,-270.42 720.26,-266.91"/>
</g>
<!-- 16 -->
<g id="node17" class="node">
<title>16</title>
<path fill="none" stroke="#56d88a" stroke-width="2" d="M1168.42,-476C1168.42,-476 1101.6,-476 1101.6,-476 1095.6,-476 1089.6,-470 1089.6,-464 1089.6,-464 1089.6,-452 1089.6,-452 1089.6,-446 1095.6,-440 1101.6,-440 1101.6,-440 1168.42,-440 1168.42,-440 1174.42,-440 1180.42,-446 1180.42,-452 1180.42,-452 1180.42,-464 1180.42,-464 1180.42,-470 1174.42,-476 1168.42,-476"/>
<text text-anchor="middle" x="1135.01" y="-455" font-family="sans" font-size="10.00">dnascope_vcffilter</text>
</g>
<!-- 16&#45;&gt;2 -->
<g id="edge16" class="edge">
<title>16&#45;&gt;2</title>
<path fill="none" stroke="grey" stroke-width="2" d="M1180.25,-450.85C1249.54,-438.59 1374.01,-404.17 1374.01,-315 1374.01,-315 1374.01,-315 1374.01,-237 1374.01,-181.6 1340.13,-169.62 1291.01,-144 1222.42,-108.22 990.78,-95.99 893.07,-92.36"/>
<polygon fill="grey" stroke="grey" stroke-width="2" points="893.06,-88.85 882.94,-91.99 892.81,-95.85 893.06,-88.85"/>
</g>
<!-- 16&#45;&gt;5 -->
<g id="edge31" class="edge">
<title>16&#45;&gt;5</title>
<path fill="none" stroke="grey" stroke-width="2" d="M1089.74,-441.46C1057.37,-430.36 1013.82,-415.41 980.52,-403.99"/>
<polygon fill="grey" stroke="grey" stroke-width="2" points="981.58,-400.65 970.99,-400.72 979.31,-407.27 981.58,-400.65"/>
</g>
<!-- 16&#45;&gt;6 -->
<g id="edge36" class="edge">
<title>16&#45;&gt;6</title>
<path fill="none" stroke="grey" stroke-width="2" d="M1119.93,-439.7C1112.62,-431.3 1103.7,-421.07 1095.68,-411.86"/>
<polygon fill="grey" stroke="grey" stroke-width="2" points="1098.13,-409.34 1088.92,-404.1 1092.85,-413.94 1098.13,-409.34"/>
</g>
<!-- 30 -->
<g id="node31" class="node">
<title>30</title>
<path fill="none" stroke="#59d856" stroke-width="2" d="M1105.32,-260C1105.32,-260 1024.71,-260 1024.71,-260 1018.71,-260 1012.71,-254 1012.71,-248 1012.71,-248 1012.71,-228 1012.71,-228 1012.71,-222 1018.71,-216 1024.71,-216 1024.71,-216 1105.32,-216 1105.32,-216 1111.32,-216 1117.32,-222 1117.32,-228 1117.32,-228 1117.32,-248 1117.32,-248 1117.32,-254 1111.32,-260 1105.32,-260"/>
<text text-anchor="middle" x="1065.01" y="-247" font-family="sans" font-size="10.00">filter_variants_in_bed</text>
<text text-anchor="middle" x="1065.01" y="-235" font-family="sans" font-size="10.00">caller: dnascope</text>
<text text-anchor="middle" x="1065.01" y="-223" font-family="sans" font-size="10.00">vcftype: germline</text>
</g>
<!-- 16&#45;&gt;30 -->
<g id="edge72" class="edge">
<title>16&#45;&gt;30</title>
<path fill="none" stroke="grey" stroke-width="2" d="M1145.64,-439.56C1151.11,-429.54 1157.21,-416.51 1160.01,-404 1170.51,-357.16 1183.66,-337.77 1160.01,-296 1152.24,-282.27 1139.69,-271.49 1126.23,-263.17"/>
<polygon fill="grey" stroke="grey" stroke-width="2" points="1127.71,-259.99 1117.29,-258.06 1124.23,-266.06 1127.71,-259.99"/>
</g>
<!-- 16&#45;&gt;31 -->
<g id="edge78" class="edge">
<title>16&#45;&gt;31</title>
<path fill="none" stroke="grey" stroke-width="2" d="M1140.25,-439.94C1149.03,-407.54 1162.52,-336.7 1127.01,-296 1111.61,-278.34 975.48,-258.17 891.01,-247.18"/>
<polygon fill="grey" stroke="grey" stroke-width="2" points="891.34,-243.7 880.97,-245.89 890.44,-250.64 891.34,-243.7"/>
</g>
<!-- 17 -->
<g id="node18" class="node">
<title>17</title>
<path fill="none" stroke="#56d88a" stroke-width="2" d="M81.42,-404C81.42,-404 14.6,-404 14.6,-404 8.6,-404 2.6,-398 2.6,-392 2.6,-392 2.6,-380 2.6,-380 2.6,-374 8.6,-368 14.6,-368 14.6,-368 81.42,-368 81.42,-368 87.42,-368 93.42,-374 93.42,-380 93.42,-380 93.42,-392 93.42,-392 93.42,-398 87.42,-404 81.42,-404"/>
<text text-anchor="middle" x="48.01" y="-383" font-family="sans" font-size="10.00">dnascope_vcffilter</text>
</g>
<!-- 17&#45;&gt;2 -->
<g id="edge17" class="edge">
<title>17&#45;&gt;2</title>
<path fill="none" stroke="grey" stroke-width="2" d="M28.97,-367.84C19.84,-358.3 9.84,-345.62 5.01,-332 -0.34,-316.92 -2.34,-310.21 5.01,-296 63.71,-182.52 126.78,-181.19 249.01,-144 353.17,-112.31 684.81,-97.11 804.99,-92.54"/>
<polygon fill="grey" stroke="grey" stroke-width="2" points="805.42,-96.02 815.28,-92.15 805.16,-89.03 805.42,-96.02"/>
</g>
<!-- 17&#45;&gt;11 -->
<g id="edge44" class="edge">
<title>17&#45;&gt;11</title>
<path fill="none" stroke="grey" stroke-width="2" d="M47.52,-367.7C47.3,-359.98 47.03,-350.71 46.79,-342.11"/>
<polygon fill="grey" stroke="grey" stroke-width="2" points="50.29,-342 46.5,-332.1 43.29,-342.2 50.29,-342"/>
</g>
<!-- 17&#45;&gt;31 -->
<g id="edge77" class="edge">
<title>17&#45;&gt;31</title>
<path fill="none" stroke="grey" stroke-width="2" d="M93.48,-380.33C167.48,-372.41 318.44,-354.96 445.01,-332 585.47,-306.53 620.33,-297.67 758.01,-260 759.28,-259.65 760.57,-259.3 761.86,-258.93"/>
<polygon fill="grey" stroke="grey" stroke-width="2" points="763.26,-262.17 771.89,-256.02 761.31,-255.45 763.26,-262.17"/>
</g>
<!-- 18&#45;&gt;2 -->
<g id="edge19" class="edge">
<title>18&#45;&gt;2</title>
<path fill="none" stroke="grey" stroke-width="2" d="M660.63,-295.53C651.21,-286.09 641.01,-273.6 636.01,-260 629.27,-241.64 626.29,-232.97 636.01,-216 672.27,-152.69 754.43,-118.32 805.45,-102.38"/>
<polygon fill="grey" stroke="grey" stroke-width="2" points="806.66,-105.68 815.22,-99.44 804.64,-98.97 806.66,-105.68"/>
</g>
<!-- 18&#45;&gt;31 -->
<g id="edge73" class="edge">
<title>18&#45;&gt;31</title>
<path fill="none" stroke="grey" stroke-width="2" d="M714.18,-295.84C734.39,-285.38 760.41,-271.91 782.05,-260.71"/>
<polygon fill="grey" stroke="grey" stroke-width="2" points="783.75,-263.77 791.03,-256.07 780.54,-257.56 783.75,-263.77"/>
</g>
<!-- 19&#45;&gt;2 -->
<g id="edge20" class="edge">
<title>19&#45;&gt;2</title>
<path fill="none" stroke="grey" stroke-width="2" d="M920.16,-439.99C938.32,-430.21 960.94,-417.26 980.01,-404 1000.48,-389.77 1000.95,-379.59 1023.01,-368 1076.09,-340.12 1113.82,-377.37 1153.01,-332 1186.82,-292.87 1176.27,-265.71 1162.01,-216 1151.61,-179.73 1148.08,-165.42 1117.01,-144 1081.25,-119.34 959.42,-102.83 893.03,-95.44"/>
<polygon fill="grey" stroke="grey" stroke-width="2" points="893.19,-91.93 882.87,-94.33 892.43,-98.89 893.19,-91.93"/>
</g>
<!-- 19&#45;&gt;5 -->
<g id="edge34" class="edge">
<title>19&#45;&gt;5</title>
<path fill="none" stroke="grey" stroke-width="2" d="M897.89,-439.7C903,-431.56 909.21,-421.69 914.86,-412.7"/>
<polygon fill="grey" stroke="grey" stroke-width="2" points="917.9,-414.43 920.26,-404.1 911.98,-410.71 917.9,-414.43"/>
</g>
<!-- 19&#45;&gt;6 -->
<g id="edge38" class="edge">
<title>19&#45;&gt;6</title>
<path fill="none" stroke="grey" stroke-width="2" d="M923.96,-443.17C952.22,-432.59 991.53,-417.88 1022.82,-406.16"/>
<polygon fill="grey" stroke="grey" stroke-width="2" points="1024.12,-409.41 1032.26,-402.63 1021.66,-402.86 1024.12,-409.41"/>
</g>
<!-- 19&#45;&gt;31 -->
<g id="edge74" class="edge">
<title>19&#45;&gt;31</title>
<path fill="none" stroke="grey" stroke-width="2" d="M882.07,-439.89C871.14,-402.09 844.87,-311.18 831.75,-265.77"/>
<polygon fill="grey" stroke="grey" stroke-width="2" points="835.07,-264.66 828.93,-256.03 828.35,-266.61 835.07,-264.66"/>
</g>
<!-- 20&#45;&gt;2 -->
<g id="edge21" class="edge">
<title>20&#45;&gt;2</title>
<path fill="none" stroke="grey" stroke-width="2" d="M1062.32,-443.23C1118.14,-418.17 1231.65,-364.66 1260.01,-332 1314.79,-268.9 1326.88,-196.68 1262.01,-144 1206.17,-98.65 987.5,-91.78 892.96,-90.97"/>
<polygon fill="grey" stroke="grey" stroke-width="2" points="892.89,-87.47 882.87,-90.9 892.84,-94.47 892.89,-87.47"/>
</g>
<!-- 20&#45;&gt;5 -->
<g id="edge35" class="edge">
<title>20&#45;&gt;5</title>
<path fill="none" stroke="grey" stroke-width="2" d="M1006.55,-439.88C993.72,-430.89 977.82,-419.76 963.92,-410.03"/>
<polygon fill="grey" stroke="grey" stroke-width="2" points="965.77,-407.06 955.57,-404.19 961.75,-412.79 965.77,-407.06"/>
</g>
<!-- 20&#45;&gt;6 -->
<g id="edge39" class="edge">
<title>20&#45;&gt;6</title>
<path fill="none" stroke="grey" stroke-width="2" d="M1041.64,-439.7C1046.64,-431.56 1052.7,-421.69 1058.22,-412.7"/>
<polygon fill="grey" stroke="grey" stroke-width="2" points="1061.25,-414.46 1063.51,-404.1 1055.29,-410.79 1061.25,-414.46"/>
</g>
<!-- 21&#45;&gt;2 -->
<g id="edge28" class="edge">
<title>21&#45;&gt;2</title>
<path fill="none" stroke="grey" stroke-width="2" d="M849.01,-143.7C849.01,-135.98 849.01,-126.71 849.01,-118.11"/>
<polygon fill="grey" stroke="grey" stroke-width="2" points="852.51,-118.1 849.01,-108.1 845.51,-118.1 852.51,-118.1"/>
</g>
<!-- 22 -->
<g id="node23" class="node">
<title>22</title>
<path fill="none" stroke="#568ad8" stroke-width="2" d="M500.76,-836C500.76,-836 323.27,-836 323.27,-836 317.27,-836 311.27,-830 311.27,-824 311.27,-824 311.27,-812 311.27,-812 311.27,-806 317.27,-800 323.27,-800 323.27,-800 500.76,-800 500.76,-800 506.76,-800 512.76,-806 512.76,-812 512.76,-812 512.76,-824 512.76,-824 512.76,-830 506.76,-836 500.76,-836"/>
<text text-anchor="middle" x="412.01" y="-821" font-family="sans" font-size="10.00">dedup</text>
<text text-anchor="middle" x="412.01" y="-809" font-family="sans" font-size="10.00">sname: DNA66244_200601_BH7GKNDSXY</text>
</g>
<!-- 22&#45;&gt;7 -->
<g id="edge40" class="edge">
<title>22&#45;&gt;7</title>
<path fill="none" stroke="grey" stroke-width="2" d="M412.01,-799.7C412.01,-791.98 412.01,-782.71 412.01,-774.11"/>
<polygon fill="grey" stroke="grey" stroke-width="2" points="415.51,-774.1 412.01,-764.1 408.51,-774.1 415.51,-774.1"/>
</g>
<!-- 22&#45;&gt;31 -->
<g id="edge75" class="edge">
<title>22&#45;&gt;31</title>
<path fill="none" stroke="grey" stroke-width="2" d="M513.03,-814.72C603.1,-810.43 725.72,-798.25 759.01,-764 882.62,-636.83 786.21,-544 808.01,-368 812.36,-332.92 817.38,-292.48 820.62,-266.37"/>
<polygon fill="grey" stroke="grey" stroke-width="2" points="824.13,-266.47 821.89,-256.11 817.18,-265.6 824.13,-266.47"/>
</g>
<!-- 35 -->
<g id="node36" class="node">
<title>35</title>
<path fill="none" stroke="#d87d56" stroke-width="2" d="M92.01,-620C92.01,-620 62.01,-620 62.01,-620 56.01,-620 50.01,-614 50.01,-608 50.01,-608 50.01,-596 50.01,-596 50.01,-590 56.01,-584 62.01,-584 62.01,-584 92.01,-584 92.01,-584 98.01,-584 104.01,-590 104.01,-596 104.01,-596 104.01,-608 104.01,-608 104.01,-614 98.01,-620 92.01,-620"/>
<text text-anchor="middle" x="77.01" y="-599" font-family="sans" font-size="10.00">dnascope</text>
</g>
<!-- 22&#45;&gt;35 -->
<g id="edge81" class="edge">
<title>22&#45;&gt;35</title>
<path fill="none" stroke="grey" stroke-width="2" d="M351.78,-799.98C292.51,-780.98 201.85,-745.66 138.01,-692 117.31,-674.6 100.56,-648.52 89.88,-629.08"/>
<polygon fill="grey" stroke="grey" stroke-width="2" points="92.92,-627.34 85.14,-620.14 86.73,-630.62 92.92,-627.34"/>
</g>
<!-- 23 -->
<g id="node24" class="node">
<title>23</title>
<path fill="none" stroke="#568ad8" stroke-width="2" d="M1024.76,-836C1024.76,-836 847.27,-836 847.27,-836 841.27,-836 835.27,-830 835.27,-824 835.27,-824 835.27,-812 835.27,-812 835.27,-806 841.27,-800 847.27,-800 847.27,-800 1024.76,-800 1024.76,-800 1030.76,-800 1036.76,-806 1036.76,-812 1036.76,-812 1036.76,-824 1036.76,-824 1036.76,-830 1030.76,-836 1024.76,-836"/>
<text text-anchor="middle" x="936.01" y="-821" font-family="sans" font-size="10.00">dedup</text>
<text text-anchor="middle" x="936.01" y="-809" font-family="sans" font-size="10.00">sname: DNA66217_200601_BH7GKNDSXY</text>
</g>
<!-- 23&#45;&gt;8 -->
<g id="edge41" class="edge">
<title>23&#45;&gt;8</title>
<path fill="none" stroke="grey" stroke-width="2" d="M880.53,-799.97C843.78,-788.68 795.9,-773.98 759.91,-762.93"/>
<polygon fill="grey" stroke="grey" stroke-width="2" points="760.68,-759.51 750.09,-759.92 758.63,-766.2 760.68,-759.51"/>
</g>
<!-- 23&#45;&gt;31 -->
<g id="edge76" class="edge">
<title>23&#45;&gt;31</title>
<path fill="none" stroke="grey" stroke-width="2" d="M935.03,-799.74C932.98,-769.89 927.12,-706.94 912.01,-656 884.65,-563.71 822.01,-555.26 822.01,-459 822.01,-459 822.01,-459 822.01,-385 822.01,-343.64 822.82,-295.7 823.41,-266.36"/>
<polygon fill="grey" stroke="grey" stroke-width="2" points="826.92,-266.15 823.63,-256.08 819.92,-266.01 826.92,-266.15"/>
</g>
<!-- 34 -->
<g id="node35" class="node">
<title>34</title>
<path fill="none" stroke="#d87d56" stroke-width="2" d="M1027.01,-764C1027.01,-764 997.01,-764 997.01,-764 991.01,-764 985.01,-758 985.01,-752 985.01,-752 985.01,-740 985.01,-740 985.01,-734 991.01,-728 997.01,-728 997.01,-728 1027.01,-728 1027.01,-728 1033.01,-728 1039.01,-734 1039.01,-740 1039.01,-740 1039.01,-752 1039.01,-752 1039.01,-758 1033.01,-764 1027.01,-764"/>
<text text-anchor="middle" x="1012.01" y="-743" font-family="sans" font-size="10.00">dnascope</text>
</g>
<!-- 23&#45;&gt;34 -->
<g id="edge80" class="edge">
<title>23&#45;&gt;34</title>
<path fill="none" stroke="grey" stroke-width="2" d="M954.8,-799.7C964.19,-791.05 975.7,-780.45 985.93,-771.03"/>
<polygon fill="grey" stroke="grey" stroke-width="2" points="988.46,-773.45 993.44,-764.1 983.72,-768.3 988.46,-773.45"/>
</g>
<!-- 24&#45;&gt;14 -->
<g id="edge50" class="edge">
<title>24&#45;&gt;14</title>
<path fill="none" stroke="grey" stroke-width="2" d="M521.82,-655.7C530.14,-647.14 540.32,-636.66 549.4,-627.3"/>
<polygon fill="grey" stroke="grey" stroke-width="2" points="551.94,-629.72 556.4,-620.1 546.92,-624.84 551.94,-629.72"/>
</g>
<!-- 25&#45;&gt;14 -->
<g id="edge51" class="edge">
<title>25&#45;&gt;14</title>
<path fill="none" stroke="grey" stroke-width="2" d="M604.63,-655.7C599.75,-647.56 593.83,-637.69 588.43,-628.7"/>
<polygon fill="grey" stroke="grey" stroke-width="2" points="591.42,-626.88 583.28,-620.1 585.42,-630.48 591.42,-626.88"/>
</g>
<!-- 26&#45;&gt;15 -->
<g id="edge52" class="edge">
<title>26&#45;&gt;15</title>
<path fill="none" stroke="grey" stroke-width="2" d="M585.19,-511.7C588.01,-503.81 591.4,-494.3 594.53,-485.55"/>
<polygon fill="grey" stroke="grey" stroke-width="2" points="597.84,-486.7 597.9,-476.1 591.24,-484.34 597.84,-486.7"/>
</g>
<!-- 27 -->
<g id="node28" class="node">
<title>27</title>
<path fill="none" stroke="#56d8d8" stroke-width="2" d="M1114.15,-548C1114.15,-548 1035.87,-548 1035.87,-548 1029.87,-548 1023.87,-542 1023.87,-536 1023.87,-536 1023.87,-524 1023.87,-524 1023.87,-518 1029.87,-512 1035.87,-512 1035.87,-512 1114.15,-512 1114.15,-512 1120.15,-512 1126.15,-518 1126.15,-524 1126.15,-524 1126.15,-536 1126.15,-536 1126.15,-542 1120.15,-548 1114.15,-548"/>
<text text-anchor="middle" x="1075.01" y="-527" font-family="sans" font-size="10.00">dnascope_modelfilter</text>
</g>
<!-- 27&#45;&gt;16 -->
<g id="edge53" class="edge">
<title>27&#45;&gt;16</title>
<path fill="none" stroke="grey" stroke-width="2" d="M1089.84,-511.7C1097.04,-503.3 1105.81,-493.07 1113.7,-483.86"/>
<polygon fill="grey" stroke="grey" stroke-width="2" points="1116.5,-485.97 1120.35,-476.1 1111.19,-481.42 1116.5,-485.97"/>
</g>
<!-- 28 -->
<g id="node29" class="node">
<title>28</title>
<path fill="none" stroke="#56d8d8" stroke-width="2" d="M99.15,-548C99.15,-548 20.87,-548 20.87,-548 14.87,-548 8.87,-542 8.87,-536 8.87,-536 8.87,-524 8.87,-524 8.87,-518 14.87,-512 20.87,-512 20.87,-512 99.15,-512 99.15,-512 105.15,-512 111.15,-518 111.15,-524 111.15,-524 111.15,-536 111.15,-536 111.15,-542 105.15,-548 99.15,-548"/>
<text text-anchor="middle" x="60.01" y="-527" font-family="sans" font-size="10.00">dnascope_modelfilter</text>
</g>
<!-- 28&#45;&gt;17 -->
<g id="edge54" class="edge">
<title>28&#45;&gt;17</title>
<path fill="none" stroke="grey" stroke-width="2" d="M58.57,-511.87C56.52,-487.67 52.76,-443.21 50.33,-414.39"/>
<polygon fill="grey" stroke="grey" stroke-width="2" points="53.79,-413.86 49.47,-404.19 46.82,-414.45 53.79,-413.86"/>
</g>
<!-- 29&#45;&gt;21 -->
<g id="edge58" class="edge">
<title>29&#45;&gt;21</title>
<path fill="none" stroke="grey" stroke-width="2" d="M740.16,-215.99C760.41,-206.14 784.51,-194.4 804.87,-184.49"/>
<polygon fill="grey" stroke="grey" stroke-width="2" points="806.48,-187.6 813.94,-180.07 803.42,-181.3 806.48,-187.6"/>
</g>
<!-- 30&#45;&gt;21 -->
<g id="edge59" class="edge">
<title>30&#45;&gt;21</title>
<path fill="none" stroke="grey" stroke-width="2" d="M1012.72,-219.09C979.43,-207.68 936.4,-192.94 902.82,-181.43"/>
<polygon fill="grey" stroke="grey" stroke-width="2" points="903.76,-178.06 893.17,-178.13 901.49,-184.68 903.76,-178.06"/>
</g>
<!-- 31&#45;&gt;21 -->
<g id="edge60" class="edge">
<title>31&#45;&gt;21</title>
<path fill="none" stroke="grey" stroke-width="2" d="M829.81,-219.84C832.84,-210.87 836.61,-199.7 840.01,-189.64"/>
<polygon fill="grey" stroke="grey" stroke-width="2" points="843.36,-190.66 843.25,-180.07 836.73,-188.42 843.36,-190.66"/>
</g>
<!-- 32 -->
<g id="node33" class="node">
<title>32</title>
<path fill="none" stroke="#d8c356" stroke-width="2" d="M543.21,-928C543.21,-928 280.82,-928 280.82,-928 274.82,-928 268.82,-922 268.82,-916 268.82,-916 268.82,-884 268.82,-884 268.82,-878 274.82,-872 280.82,-872 280.82,-872 543.21,-872 543.21,-872 549.21,-872 555.21,-878 555.21,-884 555.21,-884 555.21,-916 555.21,-916 555.21,-922 549.21,-928 543.21,-928"/>
<text text-anchor="middle" x="412.01" y="-915" font-family="sans" font-size="10.00">mapping</text>
<text text-anchor="middle" x="412.01" y="-903" font-family="sans" font-size="10.00">fastqpattern: DNA66244_S2</text>
<text text-anchor="middle" x="412.01" y="-891" font-family="sans" font-size="10.00">stype: tumor</text>
<text text-anchor="middle" x="412.01" y="-879" font-family="sans" font-size="10.00">workingdir: /seqstore/webfolders/wgs/barncancer/hg38/DNA66244</text>
</g>
<!-- 32&#45;&gt;22 -->
<g id="edge64" class="edge">
<title>32&#45;&gt;22</title>
<path fill="none" stroke="grey" stroke-width="2" d="M412.01,-871.92C412.01,-863.72 412.01,-854.72 412.01,-846.49"/>
<polygon fill="grey" stroke="grey" stroke-width="2" points="415.51,-846.27 412.01,-836.27 408.51,-846.27 415.51,-846.27"/>
</g>
<!-- 33 -->
<g id="node34" class="node">
<title>33</title>
<path fill="none" stroke="#d8c356" stroke-width="2" d="M1067.21,-928C1067.21,-928 804.82,-928 804.82,-928 798.82,-928 792.82,-922 792.82,-916 792.82,-916 792.82,-884 792.82,-884 792.82,-878 798.82,-872 804.82,-872 804.82,-872 1067.21,-872 1067.21,-872 1073.21,-872 1079.21,-878 1079.21,-884 1079.21,-884 1079.21,-916 1079.21,-916 1079.21,-922 1073.21,-928 1067.21,-928"/>
<text text-anchor="middle" x="936.01" y="-915" font-family="sans" font-size="10.00">mapping</text>
<text text-anchor="middle" x="936.01" y="-903" font-family="sans" font-size="10.00">fastqpattern: DNA66217_S6</text>
<text text-anchor="middle" x="936.01" y="-891" font-family="sans" font-size="10.00">stype: normal</text>
<text text-anchor="middle" x="936.01" y="-879" font-family="sans" font-size="10.00">workingdir: /seqstore/webfolders/wgs/barncancer/hg38/DNA66244</text>
</g>
<!-- 33&#45;&gt;23 -->
<g id="edge65" class="edge">
<title>33&#45;&gt;23</title>
<path fill="none" stroke="grey" stroke-width="2" d="M936.01,-871.92C936.01,-863.72 936.01,-854.72 936.01,-846.49"/>
<polygon fill="grey" stroke="grey" stroke-width="2" points="939.51,-846.27 936.01,-836.27 932.51,-846.27 939.51,-846.27"/>
</g>
<!-- 34&#45;&gt;27 -->
<g id="edge69" class="edge">
<title>34&#45;&gt;27</title>
<path fill="none" stroke="grey" stroke-width="2" d="M1017.06,-727.85C1027.98,-690.75 1053.87,-602.81 1067.03,-558.1"/>
<polygon fill="grey" stroke="grey" stroke-width="2" points="1070.47,-558.81 1069.94,-548.23 1063.76,-556.84 1070.47,-558.81"/>
</g>
<!-- 35&#45;&gt;28 -->
<g id="edge70" class="edge">
<title>35&#45;&gt;28</title>
<path fill="none" stroke="grey" stroke-width="2" d="M72.81,-583.7C70.92,-575.9 68.64,-566.51 66.53,-557.83"/>
<polygon fill="grey" stroke="grey" stroke-width="2" points="69.93,-557 64.17,-548.1 63.13,-558.65 69.93,-557"/>
</g>
</g>
</svg>
